<svg xmlns="http://www.w3.org/2000/svg" xmlns:xlink="http://www.w3.org/1999/xlink" viewBox="0 0 1080 2008.33"><defs><style>.cls-1{fill:none;}.cls-2{fill:#f2f2f2;}.cls-3{clip-path:url(#clip-path);}.cls-4,.cls-5{fill:#bf1b28;}.cls-4{opacity:0.2;}.cls-6{font-size:137.07px;fill:#401519;font-family:Gabriola;}</style><clipPath id="clip-path"><rect class="cls-1" width="1080" height="1920"/></clipPath></defs><g id="Layer_2" data-name="Layer 2"><g id="Layer_1-2" data-name="Layer 1"><rect class="cls-2" width="1080" height="1920"/><g class="cls-3"><path class="cls-4" d="M316.46,847.36c-15.84,13-43.2,13.09-62,3.08s-29.64-28-33.15-46.17c-10.75-55.53,38.71-106.77,92.5-141.5s101.54-70.53,137.94-118.13c49.44-64.65,57.94-148.95,128.13-199,25.42,58.26,33.61,121.55,23.67,182.91C591.41,603.52,553.11,673.8,511.07,741c-104.76,167.55-235.7,324.34-322.64,498.64-44.13,88.5-76.89,183.57-66.58,278.83,13.47,124.37,107,242.71,244,296.65s313.05,37.62,426.25-45.64c66-48.57,108.47-115.35,138.21-184,32.21-74.31,51.15-154.88,32.34-232.24s-81-150.7-171.49-176.89c-107.66-31.14-239.91,18-282.62,105-5,10.14-8.89,21.31-5.65,31.91,3.75,12.25,16.15,21.22,28.15,29.1,76.51,50.28,164,90.89,227,152.55s96.06,154.41,44.63,223c-32.77-54.23-81.23-102-140.24-138.25C612.45,1549,554.54,1526,513.8,1487.3c-54.09-51.42-69.79-123.07-70.7-191-1-74.17,15.14-152.24,72-209.85C601.4,999,778.2,985.77,882.25,1059c91,64,116.21,170,127.77,268,17.22,145.92,15.28,298.29-56.78,432.39s-228,245.93-406.28,248.86c-116.7,1.92-230.94-43.19-311.18-112.88C40.21,1725.54,30.12,1438,102.71,1225.6,148.61,1091.31,227,965.88,316.46,847.36Z"/></g><path class="cls-5" d="M565.08,460.07a31.67,31.67,0,0,0-50.16,0C449.57,544.79,279.57,788,286.19,1017.82c9.42,327.25,498.2,327.25,507.62,0C800.43,788,630.43,544.79,565.08,460.07Zm157.27,660.32c-31.94,59.43-101,109-180.05,110.29-51.72.85-102.34-19.14-137.9-50-86.67-75.27-91.14-202.7-59-296.82,20.34-59.51,55.08-115.1,94.72-167.63-7,5.77-19.14,5.81-27.47,1.37A29.16,29.16,0,0,1,398,697.11c-4.76-24.61,17.16-47.32,41-62.71s45-31.25,61.13-52.35c21.91-28.65,25.68-66,56.78-88.17a144.54,144.54,0,0,1,10.49,81.06c-5.38,33.2-22.35,64.35-41,94.15-46.43,74.25-104.46,143.74-143,221-19.56,39.22-34.08,81.35-29.51,123.56,6,55.12,47.4,107.56,108.11,131.47s138.73,16.67,188.89-20.23c29.27-21.52,48.08-51.12,61.26-81.52,14.27-32.93,22.66-68.64,14.33-102.92s-35.88-66.79-76-78.39c-47.71-13.8-106.32,8-125.25,46.52-2.2,4.5-3.94,9.45-2.5,14.15,1.66,5.42,7.16,9.4,12.47,12.89,33.91,22.29,72.66,40.28,100.58,67.61s42.57,68.43,19.78,98.8c-14.53-24-36-45.2-62.15-61.27-22.11-13.58-47.77-23.78-65.82-40.94-24-22.78-30.93-54.54-31.33-84.66-.44-32.87,6.7-67.47,31.9-93,38.25-38.76,116.6-44.61,162.71-12.14,40.31,28.37,51.5,75.34,56.62,118.76C755.15,993.44,754.28,1061,722.35,1120.39Z"/><text class="cls-6" transform="translate(418.86 1379.77)">Blood</text></g></g></svg>